<?xml version="1.0" standalone="no"?>
<!DOCTYPE svg PUBLIC "-//W3C//DTD SVG 20010904//EN"
 "http://www.w3.org/TR/2001/REC-SVG-20010904/DTD/svg10.dtd">
<svg version="1.0" xmlns="http://www.w3.org/2000/svg"
 width="512.000000pt" height="512.000000pt" viewBox="0 0 512.000000 512.000000"
 preserveAspectRatio="xMidYMid meet">
<metadata>
Created by potrace 1.15, written by Peter Selinger 2001-2017
</metadata>
<g transform="translate(0.000000,512.000000) scale(0.100000,-0.100000)"
fill="#000000" stroke="none">
<path d="M2430 5113 c-69 -12 -193 -50 -257 -79 -101 -46 -186 -106 -274 -193
-100 -100 -146 -171 -241 -370 -116 -242 -211 -398 -523 -866 -154 -231 -304
-459 -332 -506 -313 -525 -403 -825 -403 -1340 0 -508 143 -903 439 -1211 271
-284 603 -444 1086 -525 98 -16 173 -18 675 -18 620 0 638 1 885 65 637 164
1064 601 1194 1220 59 283 55 664 -10 1000 -25 124 -97 346 -170 520 -29 69
-195 409 -369 755 -217 431 -340 688 -390 815 -126 318 -191 434 -315 556
-135 133 -296 190 -472 166 -74 -11 -99 -10 -158 3 -66 14 -300 19 -365 8z
m381 -289 c54 -15 63 -15 129 1 137 34 237 -4 337 -126 68 -84 117 -178 201
-389 100 -249 188 -435 397 -840 467 -906 546 -1124 574 -1590 44 -733 -251
-1254 -843 -1490 -160 -63 -408 -112 -636 -125 -115 -7 -337 6 -460 26 -520
86 -909 361 -1088 772 -92 208 -126 396 -126 687 1 517 78 753 558 1685 216
419 333 667 427 904 81 203 120 278 190 361 104 125 205 162 340 124z m-685
-163 c-9 -17 -52 -117 -95 -223 -116 -283 -189 -436 -432 -909 -415 -807 -502
-1037 -556 -1459 -20 -162 -22 -472 -4 -610 56 -418 209 -734 482 -994 l102
-97 -69 26 c-197 74 -356 176 -499 319 -158 158 -255 323 -318 541 -61 208
-79 383 -66 641 15 304 57 466 188 739 103 211 175 330 507 830 312 469 411
634 525 872 85 179 118 232 193 311 53 57 66 61 42 13z"/>
<path d="M2770 3400 c-382 -72 -766 -549 -893 -1110 -29 -127 -31 -427 -4
-565 71 -363 235 -592 520 -725 272 -127 662 -127 933 0 209 97 358 252 447
466 89 210 120 527 78 776 -76 439 -376 910 -691 1081 -126 68 -278 99 -390
77z m200 -283 c81 -33 145 -80 235 -171 181 -184 330 -475 381 -743 25 -132
15 -373 -21 -507 -69 -264 -230 -432 -472 -498 -64 -17 -107 -21 -233 -21
-180 0 -264 18 -383 80 -128 67 -258 222 -298 356 -43 141 -51 189 -56 347 -4
144 -2 178 17 270 80 387 350 780 608 886 74 31 149 31 222 1z"/>
<path d="M2687 2825 c-60 -32 -161 -131 -214 -210 -56 -83 -89 -150 -123 -254
-62 -183 -24 -291 100 -291 80 0 121 44 139 152 23 134 140 321 231 368 65 34
85 64 85 131 0 53 -3 62 -32 90 -44 45 -117 50 -186 14z"/>
</g>
</svg>
